<svg class="svg-icon" style="width: 1em;height: 1em;vertical-align: middle;fill: currentColor;overflow: hidden;" viewBox="0 0 1024 1024" version="1.1" xmlns="http://www.w3.org/2000/svg"><path d="M601.92 912H438.08l-24.64-98.56-6.56-2.08-4.96-1.92-3.68-1.44-86.08 51.68-115.84-115.68 52-86.88-1.44-3.36c-1.12-3.36-2.4-6.56-3.36-9.76v-1.44L144 617.92V454.08l99.04-24.8 1.76-5.44 2.88-7.52-54.08-90.24 116.48-116.48L400 263.36l3.04-1.28 9.6-3.36h1.12L438.08 160h163.84l24.48 98.4h1.6l10.08 3.52 3.52 1.44 86.24-51.68 116 115.84-52.16 86.72 1.28 3.52c1.28 3.2 2.56 6.56 3.52 9.76v1.28L896 454.08v163.84l-99.04 24.64-1.76 5.6-2.88 7.52 54.24 90.24-116.64 116.48L640 808.64l-3.2 1.12-9.6 3.36h-0.96zM272 416a32 32 0 0 0-32 32v176a32 32 0 0 0 32 32h147.2a156.96 156.96 0 0 0 201.44 0H768a32 32 0 0 0 32-32V448a32 32 0 0 0-32-32h-147.36a156.48 156.48 0 0 0-201.44 0z" fill="#5E5C5C" /><path d="M369.6 496l-16 18.08a46.08 46.08 0 0 0-18.88-7.68 9.92 9.92 0 0 0-7.52 3.36 11.52 11.52 0 0 0-3.2 8c0 6.08 5.44 11.2 16 16a116.64 116.64 0 0 1 18.24 9.28 33.6 33.6 0 0 1 10.4 11.68 31.04 31.04 0 0 1 4.16 16 35.84 35.84 0 0 1-12.8 27.52 43.04 43.04 0 0 1-30.24 11.68A55.04 55.04 0 0 1 292 592l17.44-20.32a32 32 0 0 0 21.92 12 13.28 13.28 0 0 0 9.28-4.16 12.48 12.48 0 0 0 4.32-8.96c0-6.4-6.72-12.16-20.32-16.96a65.44 65.44 0 0 1-16-8 28.8 28.8 0 0 1-8.16-10.72 33.92 33.92 0 0 1-3.36-14.56 34.72 34.72 0 0 1 10.72-26.56A38.08 38.08 0 0 1 336 483.2a49.28 49.28 0 0 1 33.6 12.8zM473.28 484.96h25.92V608h-25.76l-56.32-80v80h-26.56v-123.04h26.24l56.48 79.04zM532.8 484.96h32l23.04 73.76 23.04-73.76h30.4L656 608h-24.48l-10.88-86.56-27.2 86.56h-12l-27.84-87.36L544 608h-25.6zM676.64 484.96h42.08a37.92 37.92 0 0 1 27.36 9.76 34.88 34.88 0 0 1 10.4 26.08 42.88 42.88 0 0 1-4.48 20.16 32 32 0 0 1-16 14.08 46.88 46.88 0 0 1-17.76 4.96h-16v48h-25.6z m25.92 22.08v32h10.24a16 16 0 0 0 11.52-4.8 16 16 0 0 0 4.64-11.36 14.08 14.08 0 0 0-5.28-11.68 24.64 24.64 0 0 0-15.2-4z" fill="#0071E3" /></svg>